<svg xmlns="http://www.w3.org/2000/svg" width="32.435" height="17.18" viewBox="0 0 32.435 17.18">
  <g id="Grupo_78" data-name="Grupo 78" transform="translate(-927.341 -697.147)">
    <rect id="Rectángulo_74" data-name="Rectángulo 74" width="21.93" height="12.256" transform="translate(927.966 697.772)" fill="none" stroke="#698eab" stroke-linejoin="bevel" stroke-width="1.25"/>
    <path id="Trazado_66" data-name="Trazado 66" d="M955.732,707.4c-1.888,0-3.418.382-3.418.854v4.6c0,.472,1.53.855,3.418.855s3.419-.383,3.419-.855v-4.6C959.151,707.779,957.62,707.4,955.732,707.4Z" fill="#fff" stroke="#698eab" stroke-linejoin="bevel" stroke-width="1.25"/>
    <path id="Trazado_67" data-name="Trazado 67" d="M948.041,704.333c-1.888,0-3.418.382-3.418.854v7.66c0,.472,1.53.855,3.418.855s3.419-.383,3.419-.855v-7.66C951.46,704.715,949.929,704.333,948.041,704.333Z" fill="#fff" stroke="#698eab" stroke-linejoin="bevel" stroke-width="1.25"/>
    <g id="Grupo_77" data-name="Grupo 77">
      <path id="Trazado_68" data-name="Trazado 68" d="M939.6,706.832a3.184,3.184,0,1,1,1.7-5.876" fill="none" stroke="#698eab" stroke-linejoin="bevel" stroke-width="1.25"/>
      <path id="Trazado_69" data-name="Trazado 69" d="M941.234,706.379a3.165,3.165,0,0,1-1.638.453" fill="none" stroke="#698eab" stroke-linejoin="bevel" stroke-width="1.25"/>
      <line id="Línea_60" data-name="Línea 60" x2="4.735" transform="translate(935.243 702.93)" fill="none" stroke="#698eab" stroke-linejoin="bevel" stroke-width="1.25"/>
      <line id="Línea_61" data-name="Línea 61" x2="4.735" transform="translate(935.243 704.216)" fill="none" stroke="#698eab" stroke-linejoin="bevel" stroke-width="1.25"/>
    </g>
    <path id="Trazado_70" data-name="Trazado 70" d="M944.623,705.437c0,.472,1.53.855,3.418.855s3.419-.383,3.419-.855" fill="none" stroke="#698eab" stroke-linejoin="bevel" stroke-width="1.25"/>
    <path id="Trazado_71" data-name="Trazado 71" d="M952.183,708.59c0,.472,1.53.855,3.418.855s3.419-.383,3.419-.855" fill="none" stroke="#698eab" stroke-linejoin="bevel" stroke-width="1.25"/>
  </g>
</svg>
