<svg xmlns="http://www.w3.org/2000/svg" width="269.751" height="55" viewBox="0 0 269.751 55">
  <g id="Grupo_5" data-name="Grupo 5" transform="translate(-42.934 -99.242)">
    <g id="Grupo_4" data-name="Grupo 4">
      <path id="Trazado_4" data-name="Trazado 4" d="M153.9,103.825V150.2h-9.529v-7.758a18.538,18.538,0,0,1-16.189,8.769c-12.394,0-21.415-10.034-21.415-24.2s9.189-24.2,21.331-24.2a18.714,18.714,0,0,1,16.273,8.937v-7.926Zm-9.443,23.187c0-8.853-6.157-15.092-14.251-15.092s-13.828,6.239-13.828,15.092c0,8.939,5.817,15.094,13.828,15.094C138.3,142.106,144.455,135.951,144.455,127.012Z" fill="#fff"/>
      <path id="Trazado_5" data-name="Trazado 5" d="M161.4,127.012c0-13.827,10.286-24.2,24.114-24.2,10.962,0,20.658,6.66,22.766,17.875h-9.866c-1.77-5.819-6.914-9.022-12.9-9.022-8.6,0-14.5,6.408-14.5,15.345,0,9.023,6.071,15.346,14.418,15.346,6.07,0,11.214-3.373,12.984-9.1h9.866c-2.192,11.467-11.974,17.958-22.85,17.958C171.69,151.211,161.4,140.841,161.4,127.012Z" fill="#fff"/>
      <path id="Trazado_6" data-name="Trazado 6" d="M79.59,103.882,71.1,116.641,62.6,103.882H42.934V150.2h9.529V104.077l18.128,27.488h.927l18.213-27.488V150.2h9.528V103.882Z" fill="#fff"/>
    </g>
    <text id="Ambients_singulars" data-name="Ambients singulars" transform="translate(224.685 99.242)" fill="#fff" font-size="14" font-family="Poppins-Regular, Poppins"><tspan x="0" y="15">Ambients </tspan><tspan x="0" y="31">singulars</tspan></text>
  </g>
</svg>
