<svg width="22" height="20" viewBox="0 0 22 20" fill="none" xmlns="http://www.w3.org/2000/svg">
<path d="M11.0458 19.297C15.4381 19.297 18.9988 15.7363 18.9988 11.344C18.9988 6.95167 15.4381 3.39099 11.0458 3.39099C6.65345 3.39099 3.09277 6.95167 3.09277 11.344C3.09277 15.7363 6.65345 19.297 11.0458 19.297Z" stroke="#698EAB" stroke-width="1.25" stroke-linejoin="bevel"/>
<path d="M1 11.046C1 8.38163 2.05842 5.8264 3.94241 3.94241C5.8264 2.05842 8.38166 1 11.046 1C13.7104 1 16.2656 2.05842 18.1496 3.94241C20.0336 5.8264 21.092 8.38163 21.092 11.046" stroke="#698EAB" stroke-width="1.25" stroke-linejoin="bevel"/>
<path d="M9.78979 15.913C8.37032 15.7677 7.00573 15.287 5.80862 14.5104C4.61152 13.7339 3.6162 12.6839 2.90479 11.447" stroke="#698EAB" stroke-width="1.25" stroke-linejoin="bevel"/>
<path d="M9.90012 15.218C9.1436 15.1341 8.39933 14.9629 7.68213 14.708" stroke="#698EAB" stroke-width="1.25" stroke-linejoin="bevel"/>
<path d="M8.42676 8.74597V10.333" stroke="#698EAB" stroke-width="1.25" stroke-linejoin="bevel"/>
<path d="M13.562 8.74597V10.333" stroke="#698EAB" stroke-width="1.25" stroke-linejoin="bevel"/>
<path d="M20.2951 9.33203H20.2941C19.8534 9.33203 19.4961 9.68931 19.4961 10.13V12.491C19.4961 12.9318 19.8534 13.289 20.2941 13.289H20.2951C20.7358 13.289 21.0931 12.9318 21.0931 12.491V10.13C21.0931 9.68931 20.7358 9.33203 20.2951 9.33203Z" stroke="#698EAB" stroke-width="1.25" stroke-linejoin="bevel"/>
<path d="M1.799 9.33203H1.798C1.35728 9.33203 1 9.68931 1 10.13V12.491C1 12.9318 1.35728 13.289 1.798 13.289H1.799C2.23972 13.289 2.597 12.9318 2.597 12.491V10.13C2.597 9.68931 2.23972 9.33203 1.799 9.33203Z" stroke="#698EAB" stroke-width="1.25" stroke-linejoin="bevel"/>
</svg>
