<svg width="38" height="24" viewBox="0 0 38 24" fill="none" xmlns="http://www.w3.org/2000/svg">
<path d="M6.93123 23.3691C8.19872 23.3691 9.22623 22.3415 9.22623 21.0741C9.22623 19.8066 8.19872 18.7791 6.93123 18.7791C5.66374 18.7791 4.63623 19.8066 4.63623 21.0741C4.63623 22.3415 5.66374 23.3691 6.93123 23.3691Z" stroke="#698EAB" stroke-width="1.25" stroke-linejoin="bevel"/>
<path d="M21.2891 23.3691C22.5566 23.3691 23.5841 22.3415 23.5841 21.0741C23.5841 19.8066 22.5566 18.7791 21.2891 18.7791C20.0216 18.7791 18.9941 19.8066 18.9941 21.0741C18.9941 22.3415 20.0216 23.3691 21.2891 23.3691Z" stroke="#698EAB" stroke-width="1.25" stroke-linejoin="bevel"/>
<path d="M4.614 21.064H1V8.63696H17.077V21.064H9.203" stroke="#698EAB" stroke-width="1.25" stroke-linejoin="bevel"/>
<path d="M23.5661 21.064H25.4661V14.85L21.9501 10.35H17.0771V21.064H18.9771" stroke="#698EAB" stroke-width="1.25" stroke-linejoin="bevel"/>
<path d="M36.3827 3.448L36.0717 1H34.7597L34.4487 3.448L34.9057 4.381H35.9257L36.3827 3.448Z" stroke="#698EAB" stroke-width="1.25" stroke-linejoin="bevel"/>
<path d="M36.5959 13.865V11.934C36.9836 11.64 37.2481 11.2122 37.3379 10.734H33.4939C33.5837 11.2122 33.8482 11.64 34.2359 11.934V13.865C33.9959 14.0467 33.8012 14.2814 33.667 14.5508C33.5327 14.8202 33.4625 15.117 33.4619 15.418V21.418C33.4619 21.9362 33.6678 22.4332 34.0342 22.7997C34.4007 23.1661 34.8977 23.372 35.4159 23.372C35.9341 23.372 36.4312 23.1661 36.7976 22.7997C37.164 22.4332 37.3699 21.9362 37.3699 21.418V15.418C37.3693 15.117 37.2991 14.8202 37.1649 14.5508C37.0306 14.2814 36.8359 14.0467 36.5959 13.865V13.865Z" stroke="#698EAB" stroke-width="1.25" stroke-linejoin="bevel"/>
<path d="M35.416 4.38098V10.543" stroke="#698EAB" stroke-width="1.25" stroke-linejoin="bevel"/>
</svg>
